<?xml version="1.0" encoding="UTF-8"?><svg xmlns:svg="http://www.w3.org/2000/svg" xmlns="http://www.w3.org/2000/svg" xmlns:xlink="http://www.w3.org/1999/xlink" version="2.0" width="1200" height="1180" ><style >
svg {
  font-family: Helvetica, Arial, sans-serif;
  font-size: 11px;
}
rect {
  stroke-linecap: butt;
  stroke-width: 3;
  stroke: #fff;
/*  stroke-opacity: 1; */
}
rect:hover {
  stroke: #fff;
/*  stroke-opacity: 1; /*
}
polygon { fill: #000; }</style><defs ><polygon id="ahead" points="0 0, -12 4, -12 -4" /><filter id="glow" x="0" y="0" ><feGaussianBlur in="SourceAlpha" stdDeviation="2" result="blurred" /><feFlood flood-color="#fff" /><feComposite operator="in" in2="blurred" /><feComponentTransfer ><feFuncA type="linear" slope="10" intercept="0" /></feComponentTransfer><feMerge ><feMergeNode /><feMergeNode in="SourceGraphic" /></feMerge></filter></defs><g ><text x="66.666664" y="20.0" text-anchor="middle" alignment-baseline="middle" fill="#000" >c6</text><text x="66.666664" y="1020.0" text-anchor="middle" alignment-baseline="middle" fill="#aaa" >c6</text><text x="200.0" y="20.0" text-anchor="middle" alignment-baseline="middle" fill="#000" >c7</text><text x="200.0" y="1020.0" text-anchor="middle" alignment-baseline="middle" fill="#aaa" >c7</text><text x="333.33334" y="20.0" text-anchor="middle" alignment-baseline="middle" fill="#000" >c8</text><text x="333.33334" y="1020.0" text-anchor="middle" alignment-baseline="middle" fill="#aaa" >c8</text><text x="466.66666" y="20.0" text-anchor="middle" alignment-baseline="middle" fill="#000" >c9</text><text x="466.66666" y="1020.0" text-anchor="middle" alignment-baseline="middle" fill="#aaa" >c9</text><text x="600.0" y="20.0" text-anchor="middle" alignment-baseline="middle" fill="#000" >c10</text><text x="600.0" y="1020.0" text-anchor="middle" alignment-baseline="middle" fill="#aaa" >c10</text><text x="733.3333" y="20.0" text-anchor="middle" alignment-baseline="middle" fill="#000" >c11</text><text x="733.3333" y="1020.0" text-anchor="middle" alignment-baseline="middle" fill="#aaa" >c11</text><text x="866.6667" y="20.0" text-anchor="middle" alignment-baseline="middle" fill="#000" >n0</text><text x="866.6667" y="1020.0" text-anchor="middle" alignment-baseline="middle" fill="#aaa" >n0</text><text x="1000.0" y="20.0" text-anchor="middle" alignment-baseline="middle" fill="#000" >n1</text><text x="1000.0" y="1020.0" text-anchor="middle" alignment-baseline="middle" fill="#aaa" >n1</text><text x="1133.3334" y="20.0" text-anchor="middle" alignment-baseline="middle" fill="#000" >n2</text><text x="1133.3334" y="1020.0" text-anchor="middle" alignment-baseline="middle" fill="#aaa" >n2</text></g><g ><line stroke="#ccc" x1="66.666664" y1="30.0" x2="66.666664" y2="1090.0" /><line stroke="#ccc" x1="200.0" y1="30.0" x2="200.0" y2="1090.0" /><line stroke="#ccc" x1="333.33334" y1="30.0" x2="333.33334" y2="1090.0" /><line stroke="#ccc" x1="466.66666" y1="30.0" x2="466.66666" y2="1090.0" /><line stroke="#ccc" x1="600.0" y1="30.0" x2="600.0" y2="1090.0" /><line stroke="#ccc" x1="733.3333" y1="30.0" x2="733.3333" y2="1090.0" /><line stroke="#ccc" x1="866.6667" y1="30.0" x2="866.6667" y2="1090.0" /><line stroke="#ccc" x1="1000.0" y1="30.0" x2="1000.0" y2="1090.0" /><line stroke="#ccc" x1="1133.3334" y1="30.0" x2="1133.3334" y2="1090.0" /></g><g ><g transform="translate(66.666664 50.0) rotate(1.4320961432091097) " ><rect x="0" y="-2.5" height="5" width="796.2499838307366" fill="#81BFFC" ><title >c6 → n0 {:key 0, :from 2, :to 3, :type "cas", :msg_id 1}</title></rect><use xlink:href="#ahead" x="800.2499838307366" y="0" /><text text-anchor="middle" x="400.1249919153683" y="-4" transform="" filter="url(#glow)" style="fill: #fff" >cas {:key 0, :from 2, :to 3}</text><text text-anchor="middle" x="400.1249919153683" y="-4" transform="" >cas {:key 0, :from 2, :to 3}</text></g><g transform="translate(200.0 90.0) rotate(1.4320961841646465) " ><rect x="0" y="-2.5" height="5" width="796.2499609497023" fill="#81BFFC" ><title >c7 → n1 {:key 0, :type "read", :msg_id 1}</title></rect><use xlink:href="#ahead" x="800.2499609497023" y="0" /><text text-anchor="middle" x="400.12498047485116" y="-4" transform="" filter="url(#glow)" style="fill: #fff" >read {:key 0}</text><text text-anchor="middle" x="400.12498047485116" y="-4" transform="" >read {:key 0}</text></g><g transform="translate(333.33334 130.0) rotate(1.7183580278598) " ><rect x="0" y="-2.5" height="5" width="662.9665890290731" fill="#81BFFC" ><title >c8 → n1 {:key 0, :from 0, :to 4, :type "cas", :msg_id 1}</title></rect><use xlink:href="#ahead" x="666.9665890290731" y="0" /><text text-anchor="middle" x="333.48329451453657" y="-4" transform="" filter="url(#glow)" style="fill: #fff" >cas {:key 0, :from 0, :to 4}</text><text text-anchor="middle" x="333.48329451453657" y="-4" transform="" >cas {:key 0, :from 0, :to 4}</text></g><g transform="translate(466.66666 170.0) rotate(1.7183578706337548) " ><rect x="0" y="-2.5" height="5" width="662.9666500367821" fill="#81BFFC" ><title >c9 → n2 {:key 0, :from 2, :to 1, :type "cas", :msg_id 1}</title></rect><use xlink:href="#ahead" x="666.9666500367821" y="0" /><text text-anchor="middle" x="333.48332501839104" y="-4" transform="" filter="url(#glow)" style="fill: #fff" >cas {:key 0, :from 2, :to 1}</text><text text-anchor="middle" x="333.48332501839104" y="-4" transform="" >cas {:key 0, :from 2, :to 1}</text></g><g transform="translate(600.0 210.0) rotate(4.289153002803799) " ><rect x="0" y="-2.5" height="5" width="263.4156352231596" fill="#81BFFC" ><title >c10 → n0 {:key 0, :type "read", :msg_id 1}</title></rect><use xlink:href="#ahead" x="267.4156352231596" y="0" /><text text-anchor="middle" x="133.7078176115798" y="-4" transform="" filter="url(#glow)" style="fill: #fff" >read {:key 0}</text><text text-anchor="middle" x="133.7078176115798" y="-4" transform="" >read {:key 0}</text></g><g transform="translate(733.3333 250.0) rotate(2.8624047900698124) " ><rect x="0" y="-2.5" height="5" width="396.49974884902076" fill="#81BFFC" ><title >c11 → n2 {:key 0, :type "read", :msg_id 1}</title></rect><use xlink:href="#ahead" x="400.49974884902076" y="0" /><text text-anchor="middle" x="200.24987442451038" y="-4" transform="" filter="url(#glow)" style="fill: #fff" >read {:key 0}</text><text text-anchor="middle" x="200.24987442451038" y="-4" transform="" >read {:key 0}</text></g><g transform="translate(66.666664 290.0) rotate(1.4320961432091097) " ><rect x="0" y="-2.5" height="5" width="796.2499838307366" fill="#81BFFC" ><title >c6 → n0 {:key 0, :value 0, :type "write", :msg_id 2}</title></rect><use xlink:href="#ahead" x="800.2499838307366" y="0" /><text text-anchor="middle" x="400.1249919153683" y="-4" transform="" filter="url(#glow)" style="fill: #fff" >write {:key 0, :value 0}</text><text text-anchor="middle" x="400.1249919153683" y="-4" transform="" >write {:key 0, :value 0}</text></g><g transform="translate(200.0 330.0) rotate(1.4320961841646465) " ><rect x="0" y="-2.5" height="5" width="796.2499609497023" fill="#81BFFC" ><title >c7 → n1 {:key 0, :type "read", :msg_id 2}</title></rect><use xlink:href="#ahead" x="800.2499609497023" y="0" /><text text-anchor="middle" x="400.12498047485116" y="-4" transform="" filter="url(#glow)" style="fill: #fff" >read {:key 0}</text><text text-anchor="middle" x="400.12498047485116" y="-4" transform="" >read {:key 0}</text></g><g transform="translate(333.33334 370.0) rotate(1.7183580278598) " ><rect x="0" y="-2.5" height="5" width="662.9665890290731" fill="#81BFFC" ><title >c8 → n1 {:key 0, :value 2, :type "write", :msg_id 2}</title></rect><use xlink:href="#ahead" x="666.9665890290731" y="0" /><text text-anchor="middle" x="333.48329451453657" y="-4" transform="" filter="url(#glow)" style="fill: #fff" >write {:key 0, :value 2}</text><text text-anchor="middle" x="333.48329451453657" y="-4" transform="" >write {:key 0, :value 2}</text></g><g transform="translate(466.66666 410.0) rotate(1.7183578706337548) " ><rect x="0" y="-2.5" height="5" width="662.9666500367821" fill="#81BFFC" ><title >c9 → n2 {:key 0, :value 0, :type "write", :msg_id 2}</title></rect><use xlink:href="#ahead" x="666.9666500367821" y="0" /><text text-anchor="middle" x="333.48332501839104" y="-4" transform="" filter="url(#glow)" style="fill: #fff" >write {:key 0, :value 0}</text><text text-anchor="middle" x="333.48332501839104" y="-4" transform="" >write {:key 0, :value 0}</text></g><g transform="translate(600.0 450.0) rotate(4.289153002803799) " ><rect x="0" y="-2.5" height="5" width="263.4156352231596" fill="#81BFFC" ><title >c10 → n0 {:key 0, :type "read", :msg_id 2}</title></rect><use xlink:href="#ahead" x="267.4156352231596" y="0" /><text text-anchor="middle" x="133.7078176115798" y="-4" transform="" filter="url(#glow)" style="fill: #fff" >read {:key 0}</text><text text-anchor="middle" x="133.7078176115798" y="-4" transform="" >read {:key 0}</text></g><g transform="translate(733.3333 490.0) rotate(2.8624047900698124) " ><rect x="0" y="-2.5" height="5" width="396.49974884902076" fill="#81BFFC" ><title >c11 → n2 {:key 0, :type "read", :msg_id 2}</title></rect><use xlink:href="#ahead" x="400.49974884902076" y="0" /><text text-anchor="middle" x="200.24987442451038" y="-4" transform="" filter="url(#glow)" style="fill: #fff" >read {:key 0}</text><text text-anchor="middle" x="200.24987442451038" y="-4" transform="" >read {:key 0}</text></g><g transform="translate(66.666664 530.0) rotate(1.4320961432091097) " ><rect x="0" y="-2.5" height="5" width="796.2499838307366" fill="#81BFFC" ><title >c6 → n0 {:key 0, :value 0, :type "write", :msg_id 3}</title></rect><use xlink:href="#ahead" x="800.2499838307366" y="0" /><text text-anchor="middle" x="400.1249919153683" y="-4" transform="" filter="url(#glow)" style="fill: #fff" >write {:key 0, :value 0}</text><text text-anchor="middle" x="400.1249919153683" y="-4" transform="" >write {:key 0, :value 0}</text></g><g transform="translate(200.0 570.0) rotate(1.4320961841646465) " ><rect x="0" y="-2.5" height="5" width="796.2499609497023" fill="#81BFFC" ><title >c7 → n1 {:key 0, :type "read", :msg_id 3}</title></rect><use xlink:href="#ahead" x="800.2499609497023" y="0" /><text text-anchor="middle" x="400.12498047485116" y="-4" transform="" filter="url(#glow)" style="fill: #fff" >read {:key 0}</text><text text-anchor="middle" x="400.12498047485116" y="-4" transform="" >read {:key 0}</text></g><g transform="translate(333.33334 610.0) rotate(1.7183580278598) " ><rect x="0" y="-2.5" height="5" width="662.9665890290731" fill="#81BFFC" ><title >c8 → n1 {:key 0, :from 1, :to 4, :type "cas", :msg_id 3}</title></rect><use xlink:href="#ahead" x="666.9665890290731" y="0" /><text text-anchor="middle" x="333.48329451453657" y="-4" transform="" filter="url(#glow)" style="fill: #fff" >cas {:key 0, :from 1, :to 4}</text><text text-anchor="middle" x="333.48329451453657" y="-4" transform="" >cas {:key 0, :from 1, :to 4}</text></g><g transform="translate(466.66666 650.0) rotate(1.7183578706337548) " ><rect x="0" y="-2.5" height="5" width="662.9666500367821" fill="#81BFFC" ><title >c9 → n2 {:key 0, :value 2, :type "write", :msg_id 3}</title></rect><use xlink:href="#ahead" x="666.9666500367821" y="0" /><text text-anchor="middle" x="333.48332501839104" y="-4" transform="" filter="url(#glow)" style="fill: #fff" >write {:key 0, :value 2}</text><text text-anchor="middle" x="333.48332501839104" y="-4" transform="" >write {:key 0, :value 2}</text></g><g transform="translate(600.0 690.0) rotate(4.289153002803799) " ><rect x="0" y="-2.5" height="5" width="263.4156352231596" fill="#81BFFC" ><title >c10 → n0 {:key 0, :type "read", :msg_id 3}</title></rect><use xlink:href="#ahead" x="267.4156352231596" y="0" /><text text-anchor="middle" x="133.7078176115798" y="-4" transform="" filter="url(#glow)" style="fill: #fff" >read {:key 0}</text><text text-anchor="middle" x="133.7078176115798" y="-4" transform="" >read {:key 0}</text></g><g transform="translate(733.3333 730.0) rotate(2.8624047900698124) " ><rect x="0" y="-2.5" height="5" width="396.49974884902076" fill="#81BFFC" ><title >c11 → n2 {:key 0, :type "read", :msg_id 3}</title></rect><use xlink:href="#ahead" x="400.49974884902076" y="0" /><text text-anchor="middle" x="200.24987442451038" y="-4" transform="" filter="url(#glow)" style="fill: #fff" >read {:key 0}</text><text text-anchor="middle" x="200.24987442451038" y="-4" transform="" >read {:key 0}</text></g><g transform="translate(66.666664 770.0) rotate(1.4320961432091097) " ><rect x="0" y="-2.5" height="5" width="796.2499838307366" fill="#81BFFC" ><title >c6 → n0 {:key 0, :value 3, :type "write", :msg_id 4}</title></rect><use xlink:href="#ahead" x="800.2499838307366" y="0" /><text text-anchor="middle" x="400.1249919153683" y="-4" transform="" filter="url(#glow)" style="fill: #fff" >write {:key 0, :value 3}</text><text text-anchor="middle" x="400.1249919153683" y="-4" transform="" >write {:key 0, :value 3}</text></g><g transform="translate(200.0 810.0) rotate(1.4320961841646465) " ><rect x="0" y="-2.5" height="5" width="796.2499609497023" fill="#81BFFC" ><title >c7 → n1 {:key 0, :type "read", :msg_id 4}</title></rect><use xlink:href="#ahead" x="800.2499609497023" y="0" /><text text-anchor="middle" x="400.12498047485116" y="-4" transform="" filter="url(#glow)" style="fill: #fff" >read {:key 0}</text><text text-anchor="middle" x="400.12498047485116" y="-4" transform="" >read {:key 0}</text></g><g transform="translate(333.33334 850.0) rotate(1.7183580278598) " ><rect x="0" y="-2.5" height="5" width="662.9665890290731" fill="#81BFFC" ><title >c8 → n1 {:key 0, :from 3, :to 4, :type "cas", :msg_id 4}</title></rect><use xlink:href="#ahead" x="666.9665890290731" y="0" /><text text-anchor="middle" x="333.48329451453657" y="-4" transform="" filter="url(#glow)" style="fill: #fff" >cas {:key 0, :from 3, :to 4}</text><text text-anchor="middle" x="333.48329451453657" y="-4" transform="" >cas {:key 0, :from 3, :to 4}</text></g><g transform="translate(600.0 890.0) rotate(4.289153002803799) " ><rect x="0" y="-2.5" height="5" width="263.4156352231596" fill="#81BFFC" ><title >c10 → n0 {:key 0, :type "read", :msg_id 4}</title></rect><use xlink:href="#ahead" x="267.4156352231596" y="0" /><text text-anchor="middle" x="133.7078176115798" y="-4" transform="" filter="url(#glow)" style="fill: #fff" >read {:key 0}</text><text text-anchor="middle" x="133.7078176115798" y="-4" transform="" >read {:key 0}</text></g><g transform="translate(466.66666 930.0) rotate(1.7183578706337548) " ><rect x="0" y="-2.5" height="5" width="662.9666500367821" fill="#81BFFC" ><title >c9 → n2 {:key 0, :value 1, :type "write", :msg_id 4}</title></rect><use xlink:href="#ahead" x="666.9666500367821" y="0" /><text text-anchor="middle" x="333.48332501839104" y="-4" transform="" filter="url(#glow)" style="fill: #fff" >write {:key 0, :value 1}</text><text text-anchor="middle" x="333.48332501839104" y="-4" transform="" >write {:key 0, :value 1}</text></g><g transform="translate(733.3333 970.0) rotate(2.8624047900698124) " ><rect x="0" y="-2.5" height="5" width="396.49974884902076" fill="#81BFFC" ><title >c11 → n2 {:key 0, :type "read", :msg_id 4}</title></rect><use xlink:href="#ahead" x="400.49974884902076" y="0" /><text text-anchor="middle" x="200.24987442451038" y="-4" transform="" filter="url(#glow)" style="fill: #fff" >read {:key 0}</text><text text-anchor="middle" x="200.24987442451038" y="-4" transform="" >read {:key 0}</text></g><g transform="translate(66.666664 1010.0) rotate(1.4320961432091097) " ><rect x="0" y="-2.5" height="5" width="796.2499838307366" fill="#81BFFC" ><title >c6 → n0 {:key 0, :from 2, :to 2, :type "cas", :msg_id 5}</title></rect><use xlink:href="#ahead" x="800.2499838307366" y="0" /><text text-anchor="middle" x="400.1249919153683" y="-4" transform="" filter="url(#glow)" style="fill: #fff" >cas {:key 0, :from 2, :to 2}</text><text text-anchor="middle" x="400.1249919153683" y="-4" transform="" >cas {:key 0, :from 2, :to 2}</text></g><g transform="translate(333.33334 1050.0) rotate(1.7183580278598) " ><rect x="0" y="-2.5" height="5" width="662.9665890290731" fill="#81BFFC" ><title >c8 → n1 {:key 0, :from 2, :to 0, :type "cas", :msg_id 5}</title></rect><use xlink:href="#ahead" x="666.9665890290731" y="0" /><text text-anchor="middle" x="333.48329451453657" y="-4" transform="" filter="url(#glow)" style="fill: #fff" >cas {:key 0, :from 2, :to 0}</text><text text-anchor="middle" x="333.48329451453657" y="-4" transform="" >cas {:key 0, :from 2, :to 0}</text></g></g></svg>